<?xml version="1.0" encoding="utf-8"?>
<!-- Generator: Adobe Illustrator 17.0.0, SVG Export Plug-In . SVG Version: 6.00 Build 0)  -->
<!DOCTYPE svg PUBLIC "-//W3C//DTD SVG 1.1//EN" "http://www.w3.org/Graphics/SVG/1.1/DTD/svg11.dtd">
<svg version="1.1" id="Слой_1" xmlns="http://www.w3.org/2000/svg" xmlns:xlink="http://www.w3.org/1999/xlink" x="0px" y="0px"
	 width="48px" height="48px" viewBox="0 0 48 48" enable-background="new 0 0 48 48" xml:space="preserve">
<path display="none" fill="#2C3036" d="M23.529,3.5C15.25,3.501,9.514,3.528,6.57,6.404c-2.875,2.944-2.903,8.949-2.903,16.958
	c8.893-0.268,12.96-0.491,16.203-3.658C23.038,16.46,23.26,12.393,23.529,3.5z M6.569,40.763c-2.875-2.944-2.903-8.949-2.903-16.958
	c8.893,0.268,12.96,0.491,16.203,3.658c3.167,3.243,3.39,7.31,3.658,16.203C15.25,43.666,9.514,43.64,6.569,40.763z M23.972,43.666
	c0.268-8.893,0.491-12.959,3.658-16.203c3.243-3.167,7.31-3.39,16.203-3.658c-0.001,8.009-0.028,14.014-2.903,16.958
	C37.986,43.64,32.25,43.666,23.972,43.666z M23.972,3.5c0.268,8.893,0.491,12.96,3.658,16.203c3.243,3.167,7.31,3.39,16.203,3.658
	c-0.001-8.009-0.028-14.014-2.903-16.958C37.986,3.528,32.25,3.501,23.972,3.5z"/>
<path fill="#999999" d="M27.63,27.464c-3.167,3.243-3.39,7.31-3.658,16.203c8.278,0,14.014-0.027,16.958-2.903
	c2.875-2.944,2.903-8.949,2.903-16.958C34.94,24.074,30.874,24.296,27.63,27.464z M3.667,23.805c0,8.009,0.028,14.014,2.903,16.958
	c2.944,2.876,8.68,2.903,16.959,2.903c-0.268-8.893-0.491-12.959-3.658-16.203C16.626,24.296,12.56,24.074,3.667,23.805z
	 M23.529,3.5C15.25,3.501,9.514,3.528,6.57,6.404c-2.875,2.944-2.903,8.949-2.903,16.958c8.893-0.268,12.96-0.491,16.203-3.658
	C23.038,16.46,23.26,12.393,23.529,3.5z M27.63,19.703c-3.167-3.243-3.39-7.31-3.658-16.203C32.25,3.501,37.986,3.528,40.93,6.404
	c2.875,2.944,2.903,8.949,2.903,16.958C34.94,23.093,30.874,22.871,27.63,19.703z"/>
<path fill="#FFFFFF" d="M43.833,23.806v-0.222v-0.221c-8.893-0.269-12.96-0.491-16.203-3.659c-3.167-3.243-3.39-7.309-3.658-16.203
	H23.75h-0.222c-0.268,8.893-0.491,12.96-3.658,16.203c-3.243,3.168-7.31,3.39-16.203,3.659v0.221v0.222
	c8.893,0.269,12.96,0.491,16.203,3.658c3.167,3.244,3.39,7.31,3.658,16.203h0.222h0.222c0.268-8.893,0.491-12.96,3.658-16.203
	C30.874,24.297,34.94,24.075,43.833,23.806z"/>
</svg>
